<?xml version="1.0" encoding="iso-8859-1"?>
<!-- Uploaded to: SVG Repo, www.svgrepo.com, Generator: SVG Repo Mixer Tools -->
<svg fill="#000000" height="800px" width="800px" version="1.1" id="Layer_1" xmlns="http://www.w3.org/2000/svg" xmlns:xlink="http://www.w3.org/1999/xlink" 
	 viewBox="0 0 512 512" xml:space="preserve">
<g>
	<g>
		<g>
			<path d="M384,136.533c-14.154,0-25.6-11.446-25.6-25.6c0-4.713-3.82-8.533-8.533-8.533s-8.533,3.82-8.533,8.533
				c0,23.58,19.087,42.667,42.667,42.667c4.713,0,8.533-3.821,8.533-8.533S388.713,136.533,384,136.533z"/>
			<path d="M162.133,102.4c-4.713,0-8.533,3.82-8.533,8.533c0,14.154-11.446,25.6-25.6,25.6c-4.713,0-8.533,3.82-8.533,8.533
				s3.82,8.533,8.533,8.533c23.58,0,42.667-19.087,42.667-42.667C170.667,106.221,166.846,102.4,162.133,102.4z"/>
			<path d="M256,0C114.617,0,0,114.617,0,256s114.617,256,256,256s256-114.617,256-256S397.383,0,256,0z M151.124,180.716
				c0.418-0.12,0.845-0.22,1.269-0.326c0.387-0.096,0.774-0.195,1.166-0.28c0.365-0.08,0.735-0.148,1.104-0.217
				c0.466-0.087,0.935-0.167,1.408-0.237c0.338-0.05,0.676-0.099,1.017-0.141c0.537-0.066,1.078-0.117,1.623-0.161
				c0.294-0.024,0.585-0.054,0.88-0.072c0.791-0.048,1.59-0.076,2.396-0.078c0.049,0,0.098-0.004,0.147-0.004
				c0.05,0,0.098,0.004,0.148,0.004c0.806,0.003,1.604,0.031,2.395,0.078c0.296,0.018,0.587,0.048,0.88,0.072
				c0.544,0.045,1.086,0.096,1.622,0.161c0.341,0.042,0.679,0.09,1.017,0.141c0.472,0.07,0.941,0.15,1.407,0.237
				c0.37,0.069,0.74,0.138,1.105,0.217c0.39,0.084,0.774,0.183,1.16,0.278c0.427,0.107,0.856,0.207,1.278,0.328
				c0.006,0.002,0.013,0.004,0.019,0.006c2.083,0.601,4.097,1.377,6.036,2.323v92.738v90.249V482.25
				c-11.789-3.988-23.197-8.875-34.133-14.617V183.045c1.934-0.943,3.942-1.717,6.019-2.317
				C151.099,180.725,151.111,180.72,151.124,180.716z M341.272,180.114c0.382-0.083,0.768-0.155,1.155-0.227
				c0.447-0.083,0.896-0.16,1.349-0.227c0.354-0.053,0.709-0.104,1.067-0.148c0.513-0.063,1.032-0.111,1.552-0.154
				c0.315-0.026,0.628-0.058,0.946-0.077c0.737-0.044,1.481-0.068,2.231-0.073c0.099-0.001,0.195-0.008,0.295-0.008
				c0.099,0,0.196,0.007,0.295,0.008c0.75,0.005,1.493,0.029,2.23,0.073c0.318,0.019,0.631,0.051,0.946,0.077
				c0.52,0.043,1.038,0.092,1.552,0.154c0.358,0.044,0.713,0.094,1.067,0.148c0.453,0.068,0.902,0.145,1.349,0.227
				c0.386,0.072,0.772,0.144,1.154,0.227c0.367,0.079,0.728,0.172,1.091,0.262c2.563,0.639,5.03,1.523,7.383,2.67v284.588
				c-10.937,5.742-22.344,10.629-34.133,14.617V366.476v-90.325v-93.105c2.351-1.146,4.816-2.03,7.377-2.669
				C340.541,180.287,340.904,180.194,341.272,180.114z M315.733,356.291c-38.459-6.329-78.613-7.095-119.467-0.442V280.58
				c17.947-10.444,38.286-16.043,59.452-16.043c21.391,0,41.941,5.721,60.015,16.379V356.291z M196.267,487.405V373.159
				c40.837-6.993,81.041-6.173,119.467,0.443v113.803c-19.092,4.914-39.107,7.528-59.733,7.528S215.359,492.319,196.267,487.405z
				 M384,457.779V198.661c0.39,0.612,0.78,1.225,1.149,1.863c2.362,4.078,7.583,5.469,11.661,3.107s5.469-7.583,3.107-11.661
				c-10.794-18.635-28.763-29.839-50.051-29.839c-21.298,0-39.269,11.214-50.054,29.861c-2.359,4.08-0.965,9.3,3.115,11.659
				c4.08,2.359,9.3,0.965,11.659-3.115c0.369-0.637,0.758-1.249,1.146-1.861v62.852c-18.484-9.169-38.899-14.057-60.015-14.057
				c-20.9,0-41.111,4.788-59.452,13.777v-62.585c0.39,0.612,0.78,1.225,1.149,1.863c2.362,4.078,7.583,5.469,11.661,3.107
				c4.078-2.362,5.469-7.583,3.107-11.661c-9.728-16.795-25.286-27.55-43.849-29.511c-0.031-0.003-0.061-0.008-0.091-0.011
				c-0.619-0.064-1.242-0.118-1.868-0.163c-0.052-0.004-0.104-0.009-0.157-0.013c-0.65-0.045-1.304-0.079-1.961-0.102
				c-0.023-0.001-0.045-0.003-0.068-0.003c-0.682-0.023-1.368-0.036-2.057-0.036c-0.69,0-1.376,0.013-2.058,0.036
				c-0.017,0.001-0.033,0.002-0.049,0.002c-0.663,0.023-1.323,0.058-1.979,0.103c-0.051,0.004-0.102,0.009-0.153,0.013
				c-0.627,0.045-1.252,0.099-1.873,0.163c-0.028,0.003-0.055,0.007-0.083,0.01c-18.574,1.959-34.137,12.724-43.859,29.534
				c-2.359,4.08-0.965,9.3,3.115,11.659c4.08,2.36,9.3,0.965,11.659-3.115c0.369-0.637,0.758-1.249,1.146-1.861v259.103
				C61.318,415.39,17.067,340.865,17.067,256C17.067,124.043,124.043,17.067,256,17.067S494.933,124.043,494.933,256
				C494.933,340.865,450.682,415.39,384,457.779z"/>
		</g>
	</g>
</g>
</svg>